<svg width="184" height="221" viewBox="0 0 184 221" fill="none" xmlns="http://www.w3.org/2000/svg">
<g clip-path="url(#clip0_202_506)">
<path d="M169.051 160.566C169.479 162.054 169.887 163.577 170.267 165.089L164.577 166.514C164.214 165.065 163.822 163.609 163.415 162.183L169.056 160.569L169.051 160.566Z" fill="#0087FB"/>
<path d="M166.2 151.753L160.682 153.753C159.672 150.963 158.559 148.205 157.373 145.548L162.732 143.155C163.975 145.942 165.142 148.835 166.2 151.753ZM158.624 134.824L153.468 137.62C152.052 135.013 150.534 132.462 148.953 130.045L153.862 126.833C155.534 129.385 157.135 132.073 158.628 134.823L158.624 134.824ZM148.415 119.267L143.813 122.906C141.973 120.582 140.035 118.359 138.048 116.299L142.267 112.226C144.39 114.421 146.456 116.794 148.415 119.267ZM135.396 105.841L131.649 110.353C129.378 108.467 127.017 106.741 124.636 105.218L127.795 100.273C130.38 101.923 132.937 103.796 135.394 105.837L135.396 105.841ZM119.484 95.7434L117.053 101.081C114.397 99.8753 111.686 98.8857 108.989 98.1495L110.536 92.4886C113.535 93.307 116.544 94.4006 119.483 95.7398L119.484 95.7434ZM101.115 90.7914L100.6 96.6362C100.052 96.5898 99.4974 96.5494 98.9466 96.5198C96.7376 96.4076 94.4211 96.4533 92.0588 96.6598L91.549 90.8144C94.1779 90.5852 96.7672 90.5351 99.2431 90.6609C99.8627 90.6911 100.491 90.7346 101.111 90.789L101.115 90.7914ZM95.6923 111.157C96.1431 112.475 96.5566 113.803 96.9227 115.098L91.2763 116.685C90.9399 115.489 90.5611 114.275 90.14 113.043C89.6249 111.537 89.042 109.997 88.4072 108.459L93.83 106.218C94.5115 107.869 95.1388 109.526 95.6922 111.145L95.6959 111.156L95.6923 111.157ZM89.8376 97.7744L84.6529 100.524C84.2241 99.7179 83.7808 98.9052 83.3206 98.0902C81.1707 98.5994 78.9976 99.2294 76.8506 99.9595C76.3015 100.147 75.7549 100.342 75.2095 100.541L73.1787 95.0379C73.7662 94.8208 74.3597 94.6098 74.9522 94.4073C76.762 93.7885 78.5916 93.2395 80.411 92.7667L85.1481 89.747C86.8468 92.4141 88.4238 95.1147 89.8339 97.7756L89.8376 97.7744ZM98.8283 124.4C99.2389 127.701 99.335 130.932 99.1209 134.011L93.2671 133.6C93.4576 130.9 93.3704 128.049 93.0038 125.124L98.8247 124.401L98.8283 124.4ZM79.8906 82.1115L75.1789 85.6067C73.4417 83.2634 71.5849 80.9247 69.6635 78.6565L74.1399 74.8625C76.1429 77.2279 78.0777 79.665 79.8906 82.1115ZM97.3233 143.575C96.9202 144.85 96.4446 146.114 95.9132 147.333C95.1717 149.035 94.2734 150.75 93.2421 152.43L88.2371 149.369C89.1254 147.919 89.9 146.444 90.5359 144.988C90.9867 143.958 91.3901 142.884 91.7307 141.803L97.3233 143.575ZM67.9394 67.9973L63.7102 72.0659C61.6401 69.9172 59.504 67.8353 57.3544 65.8792L61.3063 61.5423C63.5507 63.5871 65.7816 65.7575 67.9407 68.0009L67.9394 67.9973ZM54.2239 55.5435L50.6062 60.1615C48.3033 58.3587 45.8946 56.6242 43.4446 55.0048L46.6811 50.1096C49.2622 51.8174 51.7995 53.645 54.2239 55.5435ZM87.3914 160.1C85.1031 162.54 82.6264 164.666 80.031 166.421L76.7471 161.56C78.9798 160.054 81.1219 158.213 83.1072 156.089L87.3878 160.101L87.3914 160.1ZM67.2309 104.039C64.6165 105.373 62.0999 106.863 59.7411 108.46L56.4463 103.603C59.0045 101.869 61.7339 100.258 64.5599 98.8119L67.2296 104.036L67.2309 104.039ZM38.7301 45.2994L35.8939 50.433C33.3368 49.0196 30.6814 47.6843 28.0014 46.4663L30.4328 41.1282C33.2521 42.4116 36.0433 43.8134 38.7301 45.2994ZM52.9367 113.789C50.7355 115.788 48.7742 117.887 47.1162 120.035L42.4754 116.446C44.3438 114.028 46.5411 111.675 48.9953 109.447L52.938 113.792L52.9367 113.789ZM69.4257 165.117L71.1133 170.737C67.6732 171.768 64.2517 172.074 60.9344 171.647L61.6887 165.829C64.1795 166.152 66.7842 165.911 69.4269 165.12L69.4257 165.117ZM42.7585 127.162C41.5845 129.758 40.8392 132.381 40.5477 134.962L34.7173 134.301C35.0791 131.111 35.9839 127.893 37.412 124.741L42.7572 127.158L42.7585 127.162ZM54.3882 163.169L51.3216 168.172C48.6008 166.504 46.0727 164.314 43.8055 161.66L48.2636 157.848C50.1325 160.033 52.189 161.823 54.3834 163.167L54.3882 163.169ZM43.7237 150.895L38.4545 153.479C37.0022 150.518 35.9058 147.359 35.2564 144.244L40.9987 143.043C41.5478 145.676 42.4836 148.365 43.7189 150.892L43.7237 150.895Z" fill="#0087FB"/>
<path d="M21.8115 37.5919L19.7931 43.0995C18.4092 42.5922 16.9857 42.0985 15.566 41.6398L17.3786 36.0614C18.8673 36.5449 20.3586 37.0598 21.8115 37.5919Z" fill="#0087FB"/>
<path d="M176.133 155.849L166.562 162.349L155.244 159.974L170.577 182.671L176.133 155.849Z" fill="#0087FB"/>
</g>
<defs>
<clipPath id="clip0_202_506">
<rect width="188.289" height="129.829" fill="white" transform="translate(60.917 220.166) rotate(-108.877)"/>
</clipPath>
</defs>
</svg>
