<svg width="25" height="24" viewBox="0 0 25 24" fill="none" xmlns="http://www.w3.org/2000/svg">
<path d="M21.875 4.39844H3.125C2.9178 4.39844 2.71909 4.47569 2.57257 4.61321C2.42606 4.75073 2.34375 4.93724 2.34375 5.13172V17.5975C2.34375 17.9864 2.50837 18.3594 2.8014 18.6345C3.09442 18.9095 3.49185 19.064 3.90625 19.064H21.0938C21.5082 19.064 21.9056 18.9095 22.1986 18.6345C22.4916 18.3594 22.6562 17.9864 22.6562 17.5975V5.13172C22.6562 4.93724 22.5739 4.75073 22.4274 4.61321C22.2809 4.47569 22.0822 4.39844 21.875 4.39844ZM12.5 12.2033L5.13379 5.86499H19.8662L12.5 12.2033ZM9.63965 11.7312L3.90625 16.6634V6.79901L9.63965 11.7312ZM10.7959 12.7257L11.9678 13.7386C12.1119 13.8628 12.3004 13.9317 12.4961 13.9317C12.6917 13.9317 12.8803 13.8628 13.0244 13.7386L14.1963 12.7257L19.8604 17.5975H5.13379L10.7959 12.7257ZM15.3604 11.7312L21.0938 6.79809V16.6644L15.3604 11.7312Z" fill="#7B0AD1"/>
</svg>
