<svg width="25" height="25" viewBox="0 0 25 25" fill="none" xmlns="http://www.w3.org/2000/svg">
<path d="M12.5 6.55983C11.7274 6.55983 10.9722 6.77486 10.3298 7.17773C9.68742 7.58059 9.18675 8.15321 8.8911 8.82315C8.59544 9.4931 8.51808 10.2303 8.66881 10.9415C8.81953 11.6527 9.19157 12.306 9.73786 12.8188C10.2842 13.3315 10.9802 13.6807 11.7379 13.8222C12.4957 13.9636 13.2811 13.891 13.9949 13.6135C14.7086 13.336 15.3187 12.8661 15.7479 12.2632C16.1772 11.6602 16.4062 10.9514 16.4062 10.2262C16.4062 9.25383 15.9947 8.32127 15.2621 7.63369C14.5296 6.94611 13.536 6.55983 12.5 6.55983ZM12.5 12.4261C12.0365 12.4261 11.5833 12.297 11.1979 12.0553C10.8125 11.8136 10.5121 11.47 10.3347 11.0681C10.1573 10.6661 10.1109 10.2238 10.2013 9.79705C10.2917 9.37033 10.5149 8.97835 10.8427 8.6707C11.1705 8.36305 11.5881 8.15353 12.0428 8.06865C12.4974 7.98377 12.9686 8.02734 13.3969 8.19384C13.8252 8.36034 14.1912 8.6423 14.4488 9.00406C14.7063 9.36582 14.8438 9.79113 14.8438 10.2262C14.8438 10.8097 14.5968 11.3692 14.1573 11.7817C13.7177 12.1943 13.1216 12.4261 12.5 12.4261ZM12.5 2.16016C10.2216 2.16258 8.03724 3.01318 6.42616 4.52533C4.81507 6.03749 3.90883 8.08771 3.90625 10.2262C3.90625 13.1043 5.32324 16.1548 8.00781 19.0485C9.21408 20.3561 10.5717 21.5335 12.0557 22.559C12.187 22.6454 12.3435 22.6917 12.5039 22.6917C12.6643 22.6917 12.8208 22.6454 12.9521 22.559C14.4333 21.5331 15.7884 20.3557 16.9922 19.0485C19.6729 16.1548 21.0938 13.1043 21.0938 10.2262C21.0912 8.08771 20.1849 6.03749 18.5738 4.52533C16.9628 3.01318 14.7784 2.16258 12.5 2.16016ZM12.5 21.0421C10.8857 19.8505 5.46875 15.4737 5.46875 10.2262C5.46875 8.47592 6.20954 6.79731 7.52816 5.55966C8.84677 4.32202 10.6352 3.62671 12.5 3.62671C14.3648 3.62671 16.1532 4.32202 17.4718 5.55966C18.7905 6.79731 19.5312 8.47592 19.5312 10.2262C19.5312 15.4719 14.1143 19.8505 12.5 21.0421Z" fill="#7B0AD1"/>
</svg>
