<svg width="25" height="24" viewBox="0 0 25 24" fill="none" xmlns="http://www.w3.org/2000/svg">
<path d="M21.7158 14.6115L17.1152 12.6766L17.1025 12.6711C16.8637 12.5752 16.6032 12.5367 16.3445 12.5591C16.0858 12.5815 15.8372 12.6641 15.6211 12.7994C15.5957 12.8152 15.5712 12.8323 15.5479 12.8507L13.1709 14.7527C11.665 14.0661 10.1104 12.6179 9.37892 11.2228L11.4082 8.95793C11.4277 8.93501 11.4463 8.9121 11.4639 8.88735C11.6049 8.68506 11.6905 8.45317 11.713 8.21234C11.7355 7.9715 11.6942 7.72919 11.5928 7.50695V7.49595L9.5254 3.17052C9.39136 2.88021 9.16087 2.63836 8.86836 2.48109C8.57584 2.32383 8.23697 2.25957 7.90235 2.29792C6.57908 2.46136 5.36444 3.07132 4.4853 4.01388C3.60615 4.95644 3.12262 6.16715 3.12501 7.41987C3.12501 14.6977 9.4336 20.6189 17.1875 20.6189C18.5222 20.6211 19.8121 20.1673 20.8163 19.3421C21.8205 18.517 22.4704 17.3769 22.6445 16.1349C22.6855 15.8209 22.6172 15.5029 22.4498 15.2284C22.2824 14.9539 22.025 14.7375 21.7158 14.6115ZM17.1875 19.1523C13.8734 19.1489 10.6961 17.9117 8.35267 15.7122C6.00925 13.5127 4.69113 10.5305 4.68751 7.41987C4.68384 6.52481 5.0274 5.65908 5.65405 4.98439C6.28069 4.30969 7.14757 3.87215 8.09278 3.75348C8.0924 3.75714 8.0924 3.76082 8.09278 3.76448L10.1436 8.07249L8.12501 10.3402C8.10452 10.3623 8.08591 10.3859 8.06934 10.4107C7.92239 10.6224 7.83618 10.8661 7.81907 11.1182C7.80196 11.3703 7.85453 11.6223 7.97169 11.8498C8.85645 13.5482 10.6797 15.2467 12.5088 16.0762C12.7529 16.1852 13.0229 16.2328 13.2925 16.2145C13.5621 16.1962 13.822 16.1125 14.0469 15.9717C14.072 15.9559 14.0961 15.9387 14.1192 15.9204L16.4932 14.0194L21.083 15.9488H21.0938C20.9689 16.8372 20.5034 17.6525 19.7844 18.2422C19.0655 18.8318 18.1423 19.1553 17.1875 19.1523Z" fill="#7B0AD1"/>
</svg>
