<svg width="125" height="113" viewBox="0 0 125 113" fill="none" xmlns="http://www.w3.org/2000/svg">
<g clip-path="url(#clip0_202_439)">
<path d="M102.053 96.4287L105.701 98.5071C105.145 99.4821 104.56 100.458 103.959 101.402L100.413 99.1535C100.976 98.2625 101.53 97.3451 102.053 96.426L102.053 96.4287Z" fill="#0087FB"/>
<path d="M63.463 7.31941C64.425 7.46255 65.3945 7.62892 66.3504 7.81258L65.5549 11.9335C64.658 11.7614 63.7479 11.6039 62.8454 11.4696L62.8373 11.4684C61.6322 11.2891 60.4056 11.1424 59.1932 11.0311L59.5748 6.8513C60.8665 6.96893 62.1741 7.12762 63.4549 7.3182L63.463 7.31941ZM73.0011 9.44574C75.1956 10.1037 77.367 10.8797 79.4547 11.7538L77.837 15.6281C75.8814 14.8124 73.8492 14.0847 71.7924 13.4665L73.0011 9.44574ZM52.7378 6.56303L52.7648 10.7622C50.6305 10.776 48.4694 10.8963 46.3428 11.1184L45.9061 6.94392C48.1673 6.70869 50.4648 6.58107 52.7347 6.56533L52.7378 6.56303ZM85.6371 14.7341C87.6536 15.8461 89.6114 17.0737 91.4601 18.3844L89.031 21.8094C87.3122 20.5897 85.4884 19.4456 83.6094 18.4121L85.6367 14.7368L85.6371 14.7341ZM39.1479 7.98199L39.986 12.0947C37.8926 12.5206 35.7966 13.0566 33.7535 13.6833L32.5196 9.66907C34.6905 9.00063 36.9211 8.43221 39.1456 7.97887L39.1479 7.98199ZM26.092 11.9936L27.7056 15.8682C25.7359 16.6881 23.7806 17.6151 21.8878 18.6232L19.912 14.9184C21.9218 13.8476 23.9991 12.8615 26.0924 11.9909L26.092 11.9936ZM96.832 22.6912C98.5457 24.2415 100.166 25.9021 101.649 27.6253L98.466 30.3636C97.0956 28.7705 95.5978 27.2358 94.0128 25.8041L96.8293 22.6908L96.832 22.6912ZM105.808 33.1408C105.993 33.4224 106.172 33.7031 106.351 33.9865C107.392 35.6411 108.351 37.3801 109.211 39.1568L105.429 40.9803C104.639 39.3438 103.754 37.7427 102.798 36.2224C102.635 35.9607 102.466 35.7008 102.298 35.4437L105.808 33.1408ZM111.809 45.5476C112.532 47.7017 113.136 49.9374 113.6 52.1967L109.489 53.0458C109.055 50.9486 108.496 48.8769 107.827 46.88L111.806 45.5445L111.809 45.5476ZM114.604 59.0019C114.807 61.2581 114.888 63.568 114.842 65.8645L110.645 65.784C110.688 63.6389 110.611 61.4843 110.422 59.3793L114.604 59.0046L114.604 59.0019ZM114.349 72.7065C114.286 73.2246 114.213 73.7496 114.136 74.2657C113.879 75.9949 113.55 77.7384 113.155 79.4526L109.063 78.5124C109.432 76.9047 109.742 75.2661 109.984 73.645C110.056 73.1613 110.123 72.6715 110.184 72.1835L114.349 72.7038L114.349 72.7065ZM107.314 84.7008L111.293 86.0414C110.57 88.1902 109.729 90.3325 108.796 92.4113L104.967 90.6926C105.843 88.7378 106.634 86.7235 107.313 84.7035L107.314 84.7008Z" fill="#0087FB"/>
<path d="M14.0195 18.4329L16.335 21.9342C15.4558 22.5159 14.5749 23.1277 13.7197 23.7516L11.2471 20.3596C12.1546 19.6992 13.088 19.051 14.0195 18.4329Z" fill="#0087FB"/>
<path d="M111.607 100.077L103.56 98.1362L99.3695 90.9976L94.7296 110.04L111.607 100.077Z" fill="#0087FB"/>
</g>
<defs>
<clipPath id="clip0_202_439">
<rect width="111" height="97" fill="white" transform="translate(109.791 112.281) rotate(-171.536)"/>
</clipPath>
</defs>
</svg>
