<svg width="52" height="50" viewBox="0 0 52 50" fill="none" xmlns="http://www.w3.org/2000/svg">
<path d="M47.6369 4.90673C41.6301 -1.13398 31.7166 -0.833697 25.9976 5.4454C20.278 -0.833475 10.3651 -1.13409 4.35824 4.90684C-1.61501 10.8554 -1.41152 20.6509 4.74299 26.3923C1.59433 29.3995 3.39815 34.8033 7.68383 35.3301C7.42711 38.2647 9.92485 40.9558 12.8794 40.9059C13.0605 44.1365 16.303 46.449 19.4116 45.5952C20.4315 49.4441 25.3342 50.7592 28.1469 47.9265C29.7443 46.3386 31.0147 45.3373 31.0957 42.9324C33.7353 42.8588 36.0191 40.544 36.0593 37.906C38.7242 37.8648 41.046 35.5423 41.087 32.8781C43.8516 32.8361 46.2487 30.3409 46.12 27.5241L47.6366 26.0076C53.4543 20.19 53.4543 10.7242 47.6369 4.90673ZM7.0298 28.8205L8.45432 27.396C8.82251 27.0278 9.30594 26.8438 9.7896 26.8438C11.4479 26.8328 12.3136 28.8831 11.1247 30.0663L9.70014 31.4908C7.8562 33.1884 5.332 30.6652 7.0298 28.8205ZM11.0019 35.6864C11.0019 35.182 11.1983 34.7077 11.555 34.3511L12.9803 32.9259C13.3368 32.5697 13.8107 32.3736 14.3147 32.3736C15.9871 32.3707 16.8349 34.4162 15.6498 35.597L14.3929 36.854C14.0087 37.2894 13.4809 37.584 12.89 37.5746C11.8753 37.5955 10.9809 36.7014 11.0019 35.6864ZM16.7504 41.8817C16.0179 41.1789 16.0179 39.9143 16.7504 39.2115L18.0073 37.9544C18.7401 37.0845 20.0266 36.9712 20.8454 37.7868C21.5815 38.5231 21.5815 39.7208 20.8454 40.4572L19.4207 41.8818C18.6846 42.6183 17.4867 42.6182 16.7504 41.8817ZM27.214 44.1445L25.7895 45.569C25.4329 45.9257 24.9587 46.1221 24.4543 46.1221C23.9499 46.1221 23.4757 45.9257 23.1191 45.569C22.3867 44.8661 22.3864 43.6015 23.1192 42.8987L24.5436 41.4742C25.2797 40.7379 26.4778 40.7379 27.2139 41.4741C27.9465 42.177 27.9466 43.4416 27.214 44.1445ZM42.2348 28.998C41.5319 29.7305 40.2673 29.7306 39.5645 28.998L32.1455 21.579L29.788 23.9365L37.207 31.3555C37.9432 32.0918 37.9432 33.2896 37.207 34.0258C36.4707 34.7623 35.2729 34.7621 34.5367 34.0258L27.2435 26.7326L27.1177 26.6068L24.7602 28.9643L24.886 29.0901L32.1792 36.3833C32.9154 37.1196 32.9154 38.3175 32.1792 39.0538C31.4429 39.79 30.245 39.79 29.5087 39.0538L29.5073 39.0552C28.1527 37.7456 26.2595 37.3144 24.5496 37.7616C24.0052 35.5374 21.7693 33.8535 19.5209 33.9025C19.4118 31.5084 17.3879 29.3457 14.996 29.0873C15.3116 24.9798 10.8005 22.1511 7.2404 24.1745C2.28225 19.7456 1.97685 11.9708 6.71596 7.26422C11.4278 2.51934 19.2132 2.83374 23.6403 7.80289L19.5188 11.9244L22.8213 15.227C25.3582 17.7641 29.2675 18.1132 32.1822 16.2746L42.2352 26.3277C42.971 27.0638 42.971 28.2617 42.2348 28.998ZM45.2794 23.6501L44.7714 24.158C44.7135 24.0942 44.6538 24.0315 44.5924 23.9702L32.3132 11.6908L31.1344 12.8695C29.4925 14.5114 26.8208 14.5116 25.1786 12.8695L24.2335 11.9244L28.8937 7.26422C40.214 -3.15496 55.6963 12.3372 45.2794 23.6501Z" fill="#7B0AD1"/>
</svg>
