<svg width="52" height="55" viewBox="0 0 52 55" fill="none" xmlns="http://www.w3.org/2000/svg">
<path d="M37.9525 54.823C37.2894 54.8249 36.6379 54.6491 36.0657 54.3139C35.4936 53.9786 35.0217 53.4962 34.6992 52.9167L28.3705 41.9622C28.1177 41.524 28.0493 41.0034 28.1804 40.5148C28.3115 40.0262 28.6313 39.6097 29.0694 39.3569C29.5076 39.1042 30.0282 39.0358 30.5168 39.1669C31.0054 39.2979 31.4218 39.6177 31.6746 40.0559L38.0034 51.0105L39.5792 47.1472C39.9058 46.4041 40.4625 45.7857 41.1672 45.383C41.8719 44.9803 42.6874 44.8146 43.4934 44.9105L47.6617 45.4188L40.0367 32.2784C39.9115 32.0614 39.8303 31.822 39.7977 31.5736C39.7651 31.3253 39.7817 31.073 39.8466 30.831C39.9115 30.5891 40.0235 30.3624 40.176 30.1637C40.3285 29.965 40.5187 29.7984 40.7357 29.6732C40.9526 29.548 41.1921 29.4668 41.4404 29.4342C41.6888 29.4016 41.9411 29.4182 42.183 29.4831C42.425 29.548 42.6517 29.6599 42.8504 29.8125C43.049 29.965 43.2157 30.1552 43.3409 30.3722L50.9659 43.538C51.3118 44.149 51.4823 44.8436 51.4586 45.5453C51.4349 46.247 51.2178 46.9285 50.8314 47.5148C50.445 48.101 49.9042 48.5691 49.2686 48.8675C48.6331 49.1659 47.9275 49.283 47.2296 49.2059L43.0613 48.6722L41.46 52.5101C41.185 53.164 40.7318 53.7275 40.1522 54.1364C39.5725 54.5454 38.8896 54.7832 38.1813 54.823H37.9525Z" fill="#7B0AD1"/>
<path d="M14.0618 54.8227H13.8585C13.1502 54.783 12.4673 54.5451 11.8876 54.1362C11.3079 53.7273 10.8548 53.1638 10.5797 52.5098L8.92766 48.6465L4.81016 49.1802C4.11412 49.2718 3.40638 49.1653 2.76804 48.8731C2.12971 48.5809 1.58661 48.1148 1.20099 47.5282C0.834592 46.9318 0.640625 46.2456 0.640625 45.5457C0.640625 44.8457 0.834592 44.1595 1.20099 43.5632L8.82599 30.3719C9.07878 29.9338 9.49527 29.614 9.98384 29.4829C10.4724 29.3518 10.993 29.4202 11.4312 29.673C11.8694 29.9257 12.1892 30.3422 12.3202 30.8308C12.4513 31.3194 12.3829 31.84 12.1302 32.2782L4.50516 45.444L8.64808 44.9102C9.45506 44.806 10.274 44.968 10.9805 45.3717C11.687 45.7754 12.2424 46.3987 12.5622 47.1469L14.2143 51.0102L20.416 40.0557C20.6688 39.6175 21.0853 39.2977 21.5738 39.1666C22.0624 39.0355 22.583 39.1039 23.0212 39.3567C23.4594 39.6095 23.7792 40.026 23.9102 40.5146C24.0413 41.0031 23.9729 41.5238 23.7202 41.9619L17.3152 52.9165C16.9927 53.4959 16.5208 53.9784 15.9487 54.3136C15.3765 54.6489 14.725 54.8247 14.0618 54.8227Z" fill="#7B0AD1"/>
<path d="M26.0076 45.0629C24.3141 45.0643 22.6884 44.3975 21.4835 43.2074L19.2468 40.9708C19.0114 40.7306 18.7307 40.5396 18.4209 40.4087C18.1112 40.2778 17.7785 40.2097 17.4422 40.2083H14.9006C13.2106 40.2016 11.5919 39.5273 10.3969 38.3323C9.20195 37.1374 8.52767 35.5186 8.52098 33.8287V31.287C8.52692 30.93 8.45757 30.5757 8.31743 30.2472C8.17729 29.9188 7.96952 29.6236 7.70764 29.3808L5.44556 27.1441C4.25546 25.9392 3.58873 24.3135 3.59014 22.6199C3.58392 21.7865 3.74238 20.9601 4.05642 20.188C4.37047 19.416 4.83391 18.7136 5.42014 18.1212L7.70764 15.8591C7.94321 15.6216 8.12958 15.34 8.25606 15.0303C8.38255 14.7206 8.44666 14.389 8.44473 14.0545V11.5129C8.43466 10.6696 8.59122 9.83268 8.90541 9.05008C9.21961 8.26749 9.68526 7.55464 10.2756 6.95246C10.866 6.35027 11.5695 5.8706 12.3457 5.54097C13.1219 5.21135 13.9556 5.03825 14.7989 5.03161H17.3406C17.6751 5.03355 18.0067 4.96943 18.3163 4.84295C18.626 4.71646 18.9076 4.5301 19.1451 4.29453L21.4835 2.08328C22.7055 0.906029 24.3362 0.248291 26.0331 0.248291C27.7299 0.248291 29.3606 0.906029 30.5826 2.08328L32.8193 4.31995C33.0568 4.55551 33.3385 4.74188 33.6481 4.86837C33.9578 4.99485 34.2894 5.05897 34.6239 5.05703H37.1656C38.8599 5.06375 40.4825 5.74153 41.6782 6.94197C42.8738 8.14242 43.5452 9.76771 43.5451 11.462V14.0037C43.5432 14.3382 43.6073 14.6698 43.7338 14.9795C43.8603 15.2891 44.0467 15.5708 44.2822 15.8083L46.5443 18.0704C47.7287 19.2733 48.3925 20.8937 48.3925 22.5818C48.3925 24.2699 47.7287 25.8903 46.5443 27.0933L44.2822 29.3299C44.0436 29.5705 43.8555 29.8562 43.7289 30.1705C43.6023 30.4848 43.5398 30.8212 43.5451 31.1599V33.7016C43.5586 34.5449 43.4054 35.3825 43.0943 36.1664C42.7832 36.9502 42.3203 37.665 41.7323 38.2695C41.1443 38.8741 40.4427 39.3566 39.6677 39.6893C38.8927 40.022 38.0597 40.1983 37.2164 40.2083H34.6747C34.3384 40.2097 34.0058 40.2778 33.696 40.4087C33.3863 40.5396 33.1055 40.7306 32.8701 40.9708L30.6335 43.2074C30.0247 43.809 29.302 44.2829 28.5076 44.6016C27.7133 44.9202 26.8634 45.077 26.0076 45.0629ZM14.7989 8.84411C14.1248 8.84411 13.4783 9.1119 13.0017 9.58855C12.525 10.0652 12.2572 10.7117 12.2572 11.3858V13.9274C12.2601 14.7627 12.0976 15.5902 11.7792 16.3623C11.4608 17.1344 10.9926 17.8359 10.4018 18.4262L8.16514 20.6883C7.92498 20.9237 7.73393 21.2044 7.60304 21.5142C7.47215 21.8239 7.40404 22.1566 7.40264 22.4929C7.40065 22.8334 7.46712 23.1709 7.59811 23.4853C7.7291 23.7996 7.92193 24.0845 8.16514 24.3229L10.4018 26.5595C10.9957 27.1529 11.4656 27.8585 11.7841 28.6352C12.1026 29.4119 12.2635 30.2442 12.2572 31.0837V33.6254C12.2572 34.2995 12.525 34.9459 13.0017 35.4226C13.4783 35.8992 14.1248 36.167 14.7989 36.167H17.3406C18.1782 36.1632 19.008 36.3277 19.7808 36.6508C20.5536 36.9739 21.2537 37.449 21.8393 38.0479L24.076 40.2845C24.5711 40.751 25.2257 41.0108 25.906 41.0108C26.5862 41.0108 27.2408 40.751 27.736 40.2845L29.9726 38.0479C30.5583 37.449 31.2583 36.9739 32.0311 36.6508C32.8039 36.3277 33.6338 36.1632 34.4714 36.167H37.0131C37.6872 36.167 38.3336 35.8992 38.8103 35.4226C39.2869 34.9459 39.5547 34.2995 39.5547 33.6254V31.0837C39.5485 30.2442 39.7093 29.4119 40.0278 28.6352C40.3464 27.8585 40.8163 27.1529 41.4101 26.5595L43.6722 24.3229C43.9143 24.0862 44.1067 23.8035 44.238 23.4914C44.3693 23.1793 44.437 22.8442 44.437 22.5056C44.437 22.167 44.3693 21.8318 44.238 21.5198C44.1067 21.2077 43.9143 20.925 43.6722 20.6883L41.4101 18.4262C40.8193 17.8359 40.3512 17.1344 40.0327 16.3623C39.7143 15.5902 39.5518 14.7627 39.5547 13.9274V11.3858C39.5547 10.7117 39.2869 10.0652 38.8103 9.58855C38.3336 9.1119 37.6872 8.84411 37.0131 8.84411H34.4714C33.6362 8.847 32.8087 8.68453 32.0366 8.36609C31.2644 8.04764 30.563 7.57952 29.9726 6.9887L27.736 4.75203C27.4989 4.50604 27.2146 4.31038 26.9002 4.17674C26.5858 4.0431 26.2476 3.97422 25.906 3.97422C25.5643 3.97422 25.2262 4.0431 24.9118 4.17674C24.5973 4.31038 24.3131 4.50604 24.076 4.75203L21.8393 6.9887C21.249 7.57952 20.5475 8.04764 19.7754 8.36609C19.0033 8.68453 18.1758 8.847 17.3406 8.84411H14.7989Z" fill="#7B0AD1"/>
<path d="M24.3308 28.5672C23.8187 28.5626 23.3278 28.3626 22.9583 28.008L18.7391 23.7634C18.3822 23.406 18.1816 22.9215 18.1816 22.4164C18.1816 21.9112 18.3822 21.4267 18.7391 21.0693C19.104 20.7168 19.5916 20.5197 20.0989 20.5197C20.6063 20.5197 21.0938 20.7168 21.4587 21.0693L24.3308 23.9668L31.4475 16.8247C31.8124 16.4722 32.2999 16.2751 32.8073 16.2751C33.3146 16.2751 33.8022 16.4722 34.167 16.8247C34.524 17.1821 34.7245 17.6666 34.7245 18.1718C34.7245 18.6769 34.524 19.1614 34.167 19.5189L25.6779 28.008C25.3177 28.361 24.8351 28.5613 24.3308 28.5672Z" fill="#7B0AD1"/>
</svg>
