<svg width="209" height="45" viewBox="0 0 209 45" fill="none" xmlns="http://www.w3.org/2000/svg">
<path d="M78.43 19.825V30.43C75.8167 33.16 72.41 34.525 68.21 34.525C65.6667 34.525 63.4267 34 61.49 32.95C59.5533 31.9 58.0483 30.4067 56.975 28.47C55.925 26.5333 55.4 24.2933 55.4 21.75C55.4 19.2767 55.9483 17.0717 57.045 15.135C58.165 13.1983 59.7167 11.6933 61.7 10.62C63.6833 9.52333 65.9583 8.975 68.525 8.975C72.2117 8.975 75.2917 10.2583 77.765 12.825L74.755 15.835C73.9617 15.0417 73.005 14.4233 71.885 13.98C70.7883 13.5133 69.6567 13.28 68.49 13.28C66.8567 13.28 65.41 13.63 64.15 14.33C62.9133 15.03 61.945 16.0217 61.245 17.305C60.5683 18.5883 60.23 20.07 60.23 21.75C60.23 23.4533 60.5567 24.9467 61.21 26.23C61.8867 27.49 62.8317 28.47 64.045 29.17C65.2583 29.87 66.6583 30.22 68.245 30.22C70.625 30.22 72.5967 29.5667 74.16 28.26V23.85H67.405V19.825H78.43ZM91.4566 16.36C92.2966 16.36 93.1016 16.5 93.8716 16.78C94.6649 17.0367 95.3299 17.4217 95.8666 17.935L93.8366 21.54C92.9499 20.9333 92.0166 20.63 91.0366 20.63C89.7532 20.63 88.7266 21.0617 87.9566 21.925C87.2099 22.7883 86.8366 24.0017 86.8366 25.565V34H82.1816V16.71H86.2066L86.5916 18.88C87.8516 17.2 89.4732 16.36 91.4566 16.36ZM105.577 16.36C108.401 16.36 110.617 17.1533 112.227 18.74C113.837 20.3033 114.642 22.45 114.642 25.18C114.642 25.7167 114.607 26.2883 114.537 26.895H101.202C101.366 27.9917 101.891 28.8667 102.777 29.52C103.687 30.1733 104.831 30.5 106.207 30.5C107.141 30.5 108.039 30.36 108.902 30.08C109.766 29.7767 110.477 29.3683 111.037 28.855L113.627 31.515C112.717 32.4483 111.597 33.1717 110.267 33.685C108.937 34.1983 107.526 34.455 106.032 34.455C104.096 34.455 102.404 34.0817 100.957 33.335C99.5341 32.5883 98.4258 31.5383 97.6324 30.185C96.8624 28.8083 96.4774 27.21 96.4774 25.39C96.4774 23.6167 96.8508 22.0533 97.5974 20.7C98.3674 19.3233 99.4408 18.2617 100.817 17.515C102.194 16.745 103.781 16.36 105.577 16.36ZM105.717 20.175C104.481 20.175 103.466 20.5017 102.672 21.155C101.902 21.785 101.436 22.6717 101.272 23.815H110.162C110.069 22.695 109.626 21.8083 108.832 21.155C108.039 20.5017 107.001 20.175 105.717 20.175ZM135.573 16.71V34H131.548L131.233 31.9C130.509 32.7167 129.634 33.335 128.608 33.755C127.581 34.175 126.461 34.385 125.248 34.385C123.614 34.385 122.156 34.0117 120.873 33.265C119.613 32.495 118.621 31.4217 117.898 30.045C117.198 28.6683 116.848 27.105 116.848 25.355C116.848 23.605 117.198 22.0417 117.898 20.665C118.621 19.2883 119.613 18.2267 120.873 17.48C122.156 16.71 123.614 16.325 125.248 16.325C126.461 16.325 127.581 16.535 128.608 16.955C129.658 17.375 130.533 17.9817 131.233 18.775L131.548 16.71H135.573ZM126.193 30.325C127.593 30.325 128.736 29.8583 129.623 28.925C130.509 27.9917 130.953 26.8017 130.953 25.355C130.953 23.9083 130.509 22.7183 129.623 21.785C128.736 20.8517 127.593 20.385 126.193 20.385C124.816 20.385 123.684 20.8517 122.798 21.785C121.911 22.7183 121.468 23.9083 121.468 25.355C121.468 26.8017 121.911 27.9917 122.798 28.925C123.684 29.8583 124.816 30.325 126.193 30.325ZM151.911 33.37C151.211 33.6967 150.523 33.93 149.846 34.07C149.193 34.21 148.469 34.28 147.676 34.28C145.833 34.28 144.386 33.755 143.336 32.705C142.309 31.655 141.796 30.045 141.796 27.875V20.525H138.681V16.71H141.796V12.3L146.416 11.81V16.71H151.071V20.525H146.416V27.875C146.416 28.645 146.603 29.24 146.976 29.66C147.373 30.0567 147.921 30.255 148.621 30.255C149.298 30.255 149.986 30.0917 150.686 29.765L151.911 33.37ZM156.777 34.315C155.983 34.315 155.33 34.07 154.817 33.58C154.303 33.09 154.047 32.46 154.047 31.69C154.047 30.92 154.303 30.29 154.817 29.8C155.33 29.2867 155.983 29.03 156.777 29.03C157.57 29.03 158.223 29.2867 158.737 29.8C159.273 30.29 159.542 30.92 159.542 31.69C159.542 32.46 159.285 33.09 158.772 33.58C158.258 34.07 157.593 34.315 156.777 34.315ZM173.816 16.325C175.449 16.325 176.896 16.71 178.156 17.48C179.439 18.2267 180.431 19.2883 181.131 20.665C181.854 22.0417 182.216 23.605 182.216 25.355C182.216 27.105 181.854 28.6683 181.131 30.045C180.431 31.4217 179.439 32.495 178.156 33.265C176.896 34.0117 175.449 34.385 173.816 34.385C172.579 34.385 171.448 34.175 170.421 33.755C169.394 33.335 168.531 32.7167 167.831 31.9L167.516 34H163.491V9.5H168.146V18.46C168.846 17.7833 169.686 17.2583 170.666 16.885C171.646 16.5117 172.696 16.325 173.816 16.325ZM172.871 30.325C174.248 30.325 175.379 29.8583 176.266 28.925C177.153 27.9917 177.596 26.8017 177.596 25.355C177.596 23.9083 177.153 22.7183 176.266 21.785C175.379 20.8517 174.248 20.385 172.871 20.385C171.471 20.385 170.328 20.8517 169.441 21.785C168.554 22.7183 168.111 23.9083 168.111 25.355C168.111 26.8017 168.554 27.9917 169.441 28.925C170.328 29.8583 171.471 30.325 172.871 30.325ZM203.279 25.005C203.279 26.4283 202.941 27.6883 202.264 28.785C201.588 29.8817 200.608 30.7683 199.324 31.445C200.584 31.9817 201.553 32.7167 202.229 33.65C202.929 34.5833 203.279 35.68 203.279 36.94C203.279 38.3867 202.894 39.6467 202.124 40.72C201.354 41.8167 200.258 42.6567 198.834 43.24C197.434 43.8467 195.801 44.15 193.934 44.15C191.998 44.15 190.318 43.8117 188.894 43.135C187.471 42.4817 186.398 41.5483 185.674 40.335C184.951 39.145 184.636 37.7683 184.729 36.205H189.244C189.198 37.4183 189.594 38.375 190.434 39.075C191.274 39.775 192.441 40.125 193.934 40.125C195.311 40.125 196.419 39.8217 197.259 39.215C198.123 38.6083 198.554 37.815 198.554 36.835C198.554 35.8317 198.158 35.05 197.364 34.49C196.571 33.9533 195.451 33.685 194.004 33.685C192.091 33.685 190.423 33.335 188.999 32.635C187.576 31.9117 186.479 30.8967 185.709 29.59C184.939 28.2833 184.554 26.755 184.554 25.005C184.554 23.325 184.951 21.8317 185.744 20.525C186.538 19.195 187.646 18.1567 189.069 17.41C190.493 16.6633 192.103 16.29 193.899 16.29C195.556 16.29 197.003 16.6283 198.239 17.305L200.374 14.68L203.734 17.2L201.389 19.965C202.043 20.735 202.521 21.5283 202.824 22.345C203.128 23.1383 203.279 24.025 203.279 25.005ZM193.934 29.625C195.358 29.625 196.501 29.205 197.364 28.365C198.251 27.5017 198.694 26.3817 198.694 25.005C198.694 23.605 198.251 22.485 197.364 21.645C196.501 20.7817 195.358 20.35 193.934 20.35C192.511 20.35 191.356 20.7817 190.469 21.645C189.606 22.485 189.174 23.605 189.174 25.005C189.174 26.3817 189.606 27.5017 190.469 28.365C191.356 29.205 192.511 29.625 193.934 29.625Z" fill="#2E3646"/>
<g clip-path="url(#clip0_202_537)">
<path fill-rule="evenodd" clip-rule="evenodd" d="M22.9937 3.13176C22.1996 3.59654 21.3874 4.44907 20.5757 5.73565C19.9793 6.68079 19.3917 7.85096 18.8209 9.26261H21.0685C21.4143 9.23491 21.747 9.19986 22.0655 9.15615C23.3994 8.97483 24.489 8.65892 25.334 8.20712C27.0103 7.31131 27.6683 6.12167 27.6371 5.06531C27.6252 4.66372 27.515 4.27424 27.325 3.9276C27.132 3.57404 26.8583 3.26591 26.5253 3.03093C25.67 2.42897 24.3942 2.31212 22.9937 3.13176ZM16.9955 38.1062C15.0015 39.9164 12.7817 41.2991 10.4021 42.2706C7.55285 43.4343 4.49012 44.0003 1.32449 44.0003C0.593076 44.0003 0 43.3997 0 42.6579C0 42.6043 0.00298886 42.551 0.00939356 42.4982L1.19042 10.5583C1.21561 9.83558 1.80143 9.26737 2.51022 9.26737V9.26261H5.79199C4.39192 7.98598 3.82361 6.44883 3.86716 4.99607C3.8915 4.17687 4.1131 3.39141 4.49311 2.69598C4.86928 2.00703 5.40343 1.40463 6.05714 0.944614C7.64124 -0.169732 9.90338 -0.447129 12.2654 0.935093C13.3935 1.59505 14.4951 2.72324 15.5365 4.3742C16.0374 5.16874 16.528 6.08835 17.0032 7.13908C17.4789 6.08878 17.969 5.16917 18.4699 4.3742C19.5113 2.7241 20.6129 1.59505 21.741 0.935093C24.103 -0.447129 26.3652 -0.169732 27.9493 0.944614C28.603 1.4042 29.1371 2.00703 29.5137 2.69598C29.8937 3.39141 30.1149 4.17687 30.1388 4.99607C30.1819 6.4484 29.6136 7.98555 28.214 9.26261H31.4958C32.2272 9.26261 32.8203 9.86328 32.8203 10.605L32.819 10.663L34 42.6103C34.0252 43.3486 33.456 43.9687 32.7267 43.9943H32.6802V43.9995C29.5487 43.9995 26.4612 43.3962 23.6077 42.2325C21.1915 41.2472 18.9494 39.8623 16.9964 38.1053L16.9955 38.1062ZM12.9345 9.26304H15.1821C14.6113 7.85139 14.0237 6.68122 13.4272 5.73608C12.6156 4.44864 11.8026 3.59611 11.0093 3.13219C9.60833 2.31255 8.33209 2.43026 7.47728 3.03223C7.1438 3.26678 6.87096 3.57534 6.67797 3.9289C6.48796 4.27553 6.3778 4.66501 6.36585 5.06661C6.33468 6.12383 6.99223 7.31348 8.66898 8.20842C9.5144 8.65978 10.6045 8.97613 11.9375 9.15745C12.2565 9.20073 12.5887 9.23491 12.9345 9.26304ZM9.41875 39.7849C11.4529 38.9544 13.3611 37.7747 15.0908 36.2302L8.05114 29.0954C6.81759 27.8451 6.20061 26.1937 6.20061 24.5406C6.20061 22.8875 6.81717 21.2357 8.05114 19.9854C9.28895 18.7317 10.9183 18.1042 12.5455 18.1042V18.1094C14.1561 18.1094 15.7654 18.7192 16.993 19.9378C18.2231 18.7075 19.8392 18.0921 21.457 18.0921V18.0869C23.0851 18.0869 24.714 18.714 25.951 19.9673C27.1845 21.2179 27.802 22.8702 27.802 24.5233C27.802 26.1764 27.185 27.8278 25.9514 29.0781L18.8977 36.2272C20.5903 37.7224 22.5185 38.9029 24.5885 39.7468C26.7059 40.6101 28.9783 41.1255 31.3058 41.2714L30.2217 11.9466H3.77963L2.69553 41.2744C5.04477 41.1377 7.3052 40.6461 9.41747 39.784L9.41875 39.7849Z" fill="#7B0AD1"/>
</g>
<defs>
<clipPath id="clip0_202_537">
<rect width="34" height="44" fill="white"/>
</clipPath>
</defs>
</svg>
